<svg xmlns="http://www.w3.org/2000/svg" width="980" height="560" viewBox="0 0 980 560">
<rect width="100%" height="100%" fill="white"/>
<text x="490.0" y="30" text-anchor="middle" font-family="sans-serif" font-size="18">W3_catastrophe_ambiguity: permanence vs action_channel_cost_scale</text>
<line x1="80" y1="430" x2="940" y2="430" stroke="#111"/>
<line x1="80" y1="60" x2="80" y2="430" stroke="#111"/>
<path d="M 80.0 430.0 L 252.0 430.0 L 424.0 430.0 L 596.0 430.0 L 768.0 430.0 L 940.0 430.0" fill="none" stroke="#0f766e" stroke-width="2"/>
<circle cx="80.0" cy="430.0" r="3" fill="#0f766e"/>
<circle cx="252.0" cy="430.0" r="3" fill="#0f766e"/>
<circle cx="424.0" cy="430.0" r="3" fill="#0f766e"/>
<circle cx="596.0" cy="430.0" r="3" fill="#0f766e"/>
<circle cx="768.0" cy="430.0" r="3" fill="#0f766e"/>
<circle cx="940.0" cy="430.0" r="3" fill="#0f766e"/>
<text x="760" y="60" font-family="sans-serif" font-size="12" fill="#0f766e">A</text>
<path d="M 80.0 379.1 L 252.0 379.1 L 424.0 379.1 L 596.0 379.1 L 768.0 379.1 L 940.0 379.1" fill="none" stroke="#b45309" stroke-width="2"/>
<circle cx="80.0" cy="379.1" r="3" fill="#b45309"/>
<circle cx="252.0" cy="379.1" r="3" fill="#b45309"/>
<circle cx="424.0" cy="379.1" r="3" fill="#b45309"/>
<circle cx="596.0" cy="379.1" r="3" fill="#b45309"/>
<circle cx="768.0" cy="379.1" r="3" fill="#b45309"/>
<circle cx="940.0" cy="379.1" r="3" fill="#b45309"/>
<text x="760" y="78" font-family="sans-serif" font-size="12" fill="#b45309">B</text>
<path d="M 80.0 110.9 L 252.0 110.9 L 424.0 110.9 L 596.0 110.9 L 768.0 110.9 L 940.0 110.9" fill="none" stroke="#1d4ed8" stroke-width="2"/>
<circle cx="80.0" cy="110.9" r="3" fill="#1d4ed8"/>
<circle cx="252.0" cy="110.9" r="3" fill="#1d4ed8"/>
<circle cx="424.0" cy="110.9" r="3" fill="#1d4ed8"/>
<circle cx="596.0" cy="110.9" r="3" fill="#1d4ed8"/>
<circle cx="768.0" cy="110.9" r="3" fill="#1d4ed8"/>
<circle cx="940.0" cy="110.9" r="3" fill="#1d4ed8"/>
<text x="760" y="96" font-family="sans-serif" font-size="12" fill="#1d4ed8">C</text>
</svg>
