<svg xmlns="http://www.w3.org/2000/svg" width="980" height="560" viewBox="0 0 980 560">
<rect width="100%" height="100%" fill="white"/>
<text x="490.0" y="30" text-anchor="middle" font-family="sans-serif" font-size="18">W4_scavenger_catastrophe: marginal gaps</text>
<line x1="80" y1="430" x2="940" y2="430" stroke="#111"/>
<line x1="80" y1="60" x2="80" y2="430" stroke="#111"/>
<path d="M 80.0 430.0 L 223.3 430.0 L 366.7 180.2 L 510.0 268.1 L 653.3 356.0 L 796.7 360.6 L 940.0 356.0" fill="none" stroke="#0f766e" stroke-width="2"/>
<circle cx="80.0" cy="430.0" r="3" fill="#0f766e"/>
<circle cx="223.3" cy="430.0" r="3" fill="#0f766e"/>
<circle cx="366.7" cy="180.2" r="3" fill="#0f766e"/>
<circle cx="510.0" cy="268.1" r="3" fill="#0f766e"/>
<circle cx="653.3" cy="356.0" r="3" fill="#0f766e"/>
<circle cx="796.7" cy="360.6" r="3" fill="#0f766e"/>
<circle cx="940.0" cy="356.0" r="3" fill="#0f766e"/>
<text x="760" y="60" font-family="sans-serif" font-size="12" fill="#0f766e">gap_AC</text>
<path d="M 80.0 60.0 L 223.3 60.0 L 366.7 166.4 L 510.0 268.1 L 653.3 356.0 L 796.7 360.6 L 940.0 356.0" fill="none" stroke="#b45309" stroke-width="2"/>
<circle cx="80.0" cy="60.0" r="3" fill="#b45309"/>
<circle cx="223.3" cy="60.0" r="3" fill="#b45309"/>
<circle cx="366.7" cy="166.4" r="3" fill="#b45309"/>
<circle cx="510.0" cy="268.1" r="3" fill="#b45309"/>
<circle cx="653.3" cy="356.0" r="3" fill="#b45309"/>
<circle cx="796.7" cy="360.6" r="3" fill="#b45309"/>
<circle cx="940.0" cy="356.0" r="3" fill="#b45309"/>
<text x="760" y="78" font-family="sans-serif" font-size="12" fill="#b45309">gap_CG</text>
</svg>
